<svg xmlns="http://www.w3.org/2000/svg" width="800" height="400" viewBox="0 0 800 400">
  <rect width="800" height="400" fill="#17a2b8" />
  <text x="400" y="100" font-family="Arial" font-size="40" text-anchor="middle" fill="white">Fal's Mood-Healer</text>
  <g transform="translate(400, 220)">
    <circle cx="0" cy="0" r="80" fill="white" opacity="0.2" />
    <g transform="translate(-30, -10)">
      <circle cx="0" cy="0" r="15" fill="white" />
      <circle cx="60" cy="0" r="15" fill="white" />
    </g>
    <path d="M-40 30 Q 0 70 40 30" stroke="white" stroke-width="5" fill="none" />
    <g transform="translate(-80, -80)">
      <path d="M0 0 Q 20 -20 40 0 Q 60 20 80 0 Q 100 -20 120 0" stroke="white" stroke-width="3" fill="none" />
      <path d="M0 15 Q 20 -5 40 15 Q 60 35 80 15 Q 100 -5 120 15" stroke="white" stroke-width="3" fill="none" />
      <path d="M0 30 Q 20 10 40 30 Q 60 50 80 30 Q 100 10 120 30" stroke="white" stroke-width="3" fill="none" />
    </g>
  </g>
</svg>